<?xml version="1.0" encoding="utf-8"?>
<!-- Generator: Adobe Illustrator 23.0.2, SVG Export Plug-In . SVG Version: 6.00 Build 0)  -->
<svg version="1.1" id="Calque_1" xmlns="http://www.w3.org/2000/svg" xmlns:xlink="http://www.w3.org/1999/xlink" x="0px" y="0px"
	 viewBox="0 0 750 750" style="enable-background:new 0 0 750 750;" xml:space="preserve">
<style type="text/css">
	.st0{fill:#E2E2E2;}
</style>
<path class="st0" d="M562.5,541.8c0,11.4-9.3,20.7-20.7,20.7h-95.6V417.3H495l7.3-56.6h-56v-36.1c0-16.4,4.5-27.5,28-27.5l30,0
	v-50.6c-5.2-0.7-23-2.2-43.7-2.2c-43.2,0-72.8,26.4-72.8,74.8v41.7h-48.9v56.6h48.9v145.2H208.2c-11.4,0-20.7-9.3-20.7-20.7V208.2
	c0-11.4,9.3-20.7,20.7-20.7h333.6c11.4,0,20.7,9.3,20.7,20.7V541.8z"/>
</svg>
