<?xml version="1.0" encoding="utf-8"?>
<!-- Generator: Adobe Illustrator 23.0.2, SVG Export Plug-In . SVG Version: 6.00 Build 0)  -->
<svg version="1.1" id="Calque_1" xmlns="http://www.w3.org/2000/svg" xmlns:xlink="http://www.w3.org/1999/xlink" x="0px" y="0px"
	 viewBox="0 0 750 750" style="enable-background:new 0 0 750 750;" xml:space="preserve">
<style type="text/css">
	.st0{fill:#E2E2E2;}
</style>
<g>
	<path class="st0" d="M375,198.7c57.4,0,64.2,0.2,86.9,1.3c21,1,32.3,4.5,39.9,7.4c10,3.9,17.2,8.6,24.7,16.1
		c7.5,7.5,12.2,14.7,16.1,24.7c2.9,7.6,6.4,19,7.4,39.9c1,22.7,1.3,29.5,1.3,86.9s-0.2,64.2-1.3,86.9c-1,21-4.5,32.3-7.4,39.9
		c-3.9,10-8.6,17.2-16.1,24.7c-7.5,7.5-14.7,12.2-24.7,16.1c-7.6,2.9-19,6.4-39.9,7.4c-22.7,1-29.5,1.3-86.9,1.3s-64.2-0.2-86.9-1.3
		c-21-1-32.3-4.5-39.9-7.4c-10-3.9-17.2-8.6-24.7-16.1c-7.5-7.5-12.2-14.7-16.1-24.7c-2.9-7.6-6.4-19-7.4-39.9
		c-1-22.7-1.3-29.5-1.3-86.9s0.2-64.2,1.3-86.9c1-21,4.5-32.3,7.4-39.9c3.9-10,8.6-17.2,16.1-24.7c7.5-7.5,14.7-12.2,24.7-16.1
		c7.6-2.9,19-6.4,39.9-7.4C310.8,199,317.6,198.7,375,198.7 M375,160c-58.4,0-65.7,0.2-88.6,1.3c-22.9,1-38.5,4.7-52.2,10
		c-14.1,5.5-26.1,12.8-38.1,24.8c-12,12-19.3,23.9-24.8,38.1c-5.3,13.7-8.9,29.3-10,52.2c-1,22.9-1.3,30.3-1.3,88.6
		c0,58.4,0.2,65.7,1.3,88.6c1,22.9,4.7,38.5,10,52.2c5.5,14.1,12.8,26.1,24.8,38.1c12,12,23.9,19.3,38.1,24.8
		c13.7,5.3,29.3,8.9,52.2,10c22.9,1,30.3,1.3,88.6,1.3s65.7-0.2,88.6-1.3c22.9-1,38.5-4.7,52.2-10c14.1-5.5,26.1-12.8,38.1-24.8
		c12-12,19.3-23.9,24.8-38.1c5.3-13.7,8.9-29.3,10-52.2c1-22.9,1.3-30.3,1.3-88.6s-0.2-65.7-1.3-88.6c-1-22.9-4.7-38.5-10-52.2
		c-5.5-14.1-12.8-26.1-24.8-38.1c-12-12-23.9-19.3-38.1-24.8c-13.7-5.3-29.3-8.9-52.2-10C440.7,160.2,433.4,160,375,160L375,160z"/>
	<path class="st0" d="M375,264.6c-61,0-110.4,49.4-110.4,110.4S314,485.4,375,485.4S485.4,436,485.4,375S436,264.6,375,264.6z
		 M375,446.7c-39.6,0-71.7-32.1-71.7-71.7s32.1-71.7,71.7-71.7s71.7,32.1,71.7,71.7S414.6,446.7,375,446.7z"/>
	<circle class="st0" cx="489.8" cy="260.2" r="25.8"/>
</g>
</svg>
