<?xml version="1.0" encoding="utf-8"?>
<!-- Generator: Adobe Illustrator 23.0.2, SVG Export Plug-In . SVG Version: 6.00 Build 0)  -->
<svg version="1.1" id="Calque_1" xmlns="http://www.w3.org/2000/svg" xmlns:xlink="http://www.w3.org/1999/xlink" x="0px" y="0px"
	 viewBox="0 0 750 750" style="enable-background:new 0 0 750 750;" xml:space="preserve">
<style type="text/css">
	.st0{fill:#E2E2E2;}
</style>
<path class="st0" d="M534.1,293.4c0.2,3.5,0.2,7.1,0.2,10.6c0,108.4-82.5,233.5-233.5,233.5c-46.4,0-89.5-13.6-125.8-36.9
	c6.4,0.8,13,1.1,19.6,1.1c38.4,0,73.8-13.1,101.9-35.1c-35.9-0.7-66.2-24.4-76.7-57c5,1,10.1,1.5,15.4,1.5c7.5,0,14.7-1,21.6-2.9
	c-37.5-7.5-65.8-40.7-65.8-80.5c0-0.4,0-0.7,0-1c11.1,6.2,23.7,9.9,37.2,10.3c-22-14.7-36.5-39.8-36.5-68.3c0-15,4.1-29.1,11.1-41.2
	c40.5,49.7,101,82.3,169.2,85.7c-1.4-6-2.1-12.3-2.1-18.7c0-45.3,36.8-82.1,82.1-82.1c23.6,0,44.9,10,59.9,25.9
	c18.7-3.7,36.2-10.5,52.1-19.9c-6.1,19.2-19.1,35.2-36.1,45.4c16.6-2,32.4-6.4,47.1-12.9C564,267.4,550.1,281.9,534.1,293.4z"/>
</svg>
