<?xml version="1.0" encoding="utf-8"?>
<!-- Generator: Adobe Illustrator 23.0.2, SVG Export Plug-In . SVG Version: 6.00 Build 0)  -->
<svg version="1.1" id="Calque_1" xmlns="http://www.w3.org/2000/svg" xmlns:xlink="http://www.w3.org/1999/xlink" x="0px" y="0px"
	 viewBox="0 0 750 750" style="enable-background:new 0 0 750 750;" xml:space="preserve">
<style type="text/css">
	.st0{fill:#E2E2E2;}
</style>
<path class="st0" d="M558.8,300c0,0-3.7-25.8-14.9-37.2c-14.3-14.9-30.2-15-37.6-15.9c-52.5-3.8-131.2-3.8-131.2-3.8h-0.2
	c0,0-78.7,0-131.2,3.8c-7.3,0.9-23.3,0.9-37.6,15.9c-11.2,11.4-14.9,37.2-14.9,37.2s-3.8,30.3-3.8,60.7v28.5
	c0,30.3,3.8,60.7,3.8,60.7s3.7,25.8,14.9,37.2c14.3,14.9,33,14.5,41.3,16c30,2.9,127.5,3.8,127.5,3.8s78.8-0.1,131.3-3.9
	c7.3-0.9,23.3-0.9,37.6-15.9c11.2-11.4,14.9-37.2,14.9-37.2s3.7-30.3,3.7-60.7v-28.5C562.5,330.4,558.8,300,558.8,300z M336.3,423.6
	l0-105.4l101.3,52.9L336.3,423.6z"/>
</svg>
